<?xml version="1.0" standalone="no"?>
<!DOCTYPE svg PUBLIC "-//W3C//DTD SVG 20010904//EN"
 "http://www.w3.org/TR/2001/REC-SVG-20010904/DTD/svg10.dtd">
<svg version="1.0" xmlns="http://www.w3.org/2000/svg"
 width="700.000000pt" height="700.000000pt" viewBox="0 0 700.000000 700.000000"
 preserveAspectRatio="xMidYMid meet">
<metadata>
Created by potrace 1.11, written by Peter Selinger 2001-2013
</metadata>
<g transform="translate(0.000000,700.000000) scale(0.100000,-0.100000)"
fill="#000000" stroke="none">
<path d="M3673 6806 c-189 -62 -353 -282 -468 -631 -64 -192 -79 -293 -80
-525 0 -228 11 -324 72 -634 l45 -229 -186 -179 c-190 -184 -316 -321 -422
-463 -425 -565 -519 -1176 -257 -1675 66 -127 125 -211 215 -308 233 -251 534
-410 875 -461 82 -13 305 -14 375 -2 39 6 49 5 53 -8 15 -52 98 -466 107 -539
19 -158 -10 -345 -74 -464 -43 -81 -131 -162 -196 -182 -70 -20 -198 -38 -247
-34 l-40 3 30 17 c41 23 122 105 151 153 161 274 21 621 -283 700 -228 60
-462 -71 -544 -303 -30 -82 -29 -223 1 -317 43 -135 96 -222 200 -326 78 -79
110 -103 180 -137 129 -64 191 -77 355 -76 121 1 152 5 228 28 160 48 283 125
371 233 128 154 186 331 186 566 0 144 -7 194 -76 514 -30 139 -54 259 -54
267 0 8 26 29 57 46 81 46 239 207 309 315 146 224 217 500 194 747 -21 221
-87 361 -249 531 -188 197 -401 301 -641 312 l-94 5 -52 237 c-28 131 -54 252
-58 269 -6 27 0 40 62 116 258 320 446 676 532 1012 76 295 83 620 19 878 -62
249 -194 450 -344 522 -71 35 -183 45 -252 22z m254 -661 c21 -57 28 -209 14
-306 -26 -176 -147 -472 -251 -610 -27 -35 -82 -97 -123 -137 l-74 -74 -17 89
c-24 121 -32 358 -17 464 43 293 213 552 401 610 41 12 52 6 67 -36z m-487
-2296 c17 -79 33 -151 36 -160 3 -12 -13 -27 -62 -54 -232 -127 -407 -345
-475 -592 -26 -93 -30 -249 -10 -333 46 -187 159 -340 341 -459 75 -49 244
-131 270 -131 9 0 31 31 75 107 l18 32 -110 108 c-124 120 -128 129 -139 269
-11 135 24 272 92 361 27 36 112 98 121 89 3 -3 56 -244 118 -536 l111 -530
-35 -7 c-73 -16 -291 -7 -372 15 -208 56 -361 156 -482 314 -149 196 -215 399
-204 634 10 234 69 363 270 587 178 199 400 437 404 434 1 -2 17 -69 33 -148z
m599 -775 c127 -62 221 -176 256 -309 49 -190 -22 -463 -154 -589 l-30 -29 -6
24 c-3 13 -48 224 -101 469 -52 245 -98 454 -101 464 -5 17 -1 18 28 12 19 -3
67 -22 108 -42z"/>
<path d="M5246 5829 c-3 -8 -41 -127 -86 -266 l-81 -252 -82 -25 c-45 -14
-161 -48 -257 -77 -96 -28 -179 -55 -183 -59 -4 -4 93 -80 216 -169 l224 -161
-3 -88 c-11 -270 -11 -472 0 -465 6 4 94 68 196 143 102 74 199 145 216 157
l31 23 258 -91 c142 -49 260 -88 262 -85 2 2 -32 116 -77 253 -45 136 -82 255
-82 263 -1 8 73 113 165 233 l166 217 -278 0 -279 0 -152 223 c-177 257 -168
245 -174 226z"/>
</g>
</svg>
