<?xml version="1.0" standalone="no"?>
<!DOCTYPE svg PUBLIC "-//W3C//DTD SVG 20010904//EN"
 "http://www.w3.org/TR/2001/REC-SVG-20010904/DTD/svg10.dtd">
<svg version="1.0" xmlns="http://www.w3.org/2000/svg"
 width="700.000000pt" height="700.000000pt" viewBox="0 0 700.000000 700.000000"
 preserveAspectRatio="xMidYMid meet">
<metadata>
Created by potrace 1.11, written by Peter Selinger 2001-2013
</metadata>
<g transform="translate(0.000000,700.000000) scale(0.100000,-0.100000)"
fill="#000000" stroke="none">
<path d="M3665 6667 c-67 -23 -102 -45 -170 -108 -181 -169 -323 -514 -355
-859 -19 -201 2 -433 70 -770 l40 -195 -189 -185 c-104 -102 -219 -221 -257
-265 -315 -364 -477 -706 -515 -1084 -38 -381 113 -772 404 -1046 303 -287
726 -435 1092 -384 42 6 79 8 82 5 3 -3 27 -107 54 -233 72 -332 76 -474 18
-651 -25 -76 -86 -170 -136 -208 -53 -41 -135 -64 -243 -71 l-95 -6 50 40
c168 133 220 361 127 556 -106 224 -361 315 -586 209 -177 -83 -286 -304 -246
-497 56 -272 265 -501 520 -571 89 -25 287 -25 390 -1 113 27 243 94 322 166
151 139 231 322 245 561 7 136 -4 219 -72 540 -52 243 -55 266 -40 275 164 97
310 257 402 440 43 85 89 225 109 330 22 119 15 329 -15 428 -44 148 -111 257
-234 378 -177 175 -359 261 -584 277 l-97 7 -53 245 c-29 135 -52 250 -53 255
0 6 34 53 75 105 466 591 652 1245 511 1800 -61 239 -190 432 -331 496 -70 32
-178 41 -240 21z m233 -621 c22 -48 34 -150 27 -231 -13 -154 -66 -328 -154
-503 -57 -115 -114 -192 -209 -285 l-69 -69 -18 114 c-21 131 -23 343 -6 438
18 100 67 239 109 309 54 92 150 186 225 222 75 35 81 36 95 5z m-453 -2240
c33 -157 40 -136 -64 -195 -149 -84 -281 -228 -360 -394 -67 -140 -85 -219
-79 -360 6 -130 28 -206 90 -309 81 -136 253 -273 431 -344 l82 -32 44 75 44
74 -39 32 c-87 70 -155 142 -176 186 -20 40 -23 62 -23 171 0 134 14 197 61
271 27 43 113 121 128 116 10 -3 215 -948 216 -994 0 -19 -7 -22 -77 -28 -227
-22 -465 49 -635 189 -81 67 -176 191 -228 300 -111 230 -121 514 -26 723 52
111 94 164 435 536 86 94 137 143 142 135 3 -7 19 -75 34 -152z m553 -711
c136 -65 234 -185 263 -323 28 -136 -16 -352 -95 -467 -38 -54 -73 -91 -80
-84 -2 2 -45 198 -96 434 -50 237 -94 440 -97 453 -7 32 18 29 105 -13z"/>
<path d="M5246 5829 c-3 -8 -41 -127 -86 -266 l-81 -252 -82 -25 c-45 -14
-161 -48 -257 -77 -96 -28 -179 -55 -183 -59 -4 -4 93 -80 216 -169 l224 -161
-3 -88 c-11 -270 -11 -472 0 -465 6 4 94 68 196 143 102 74 199 145 216 157
l31 23 258 -91 c142 -49 260 -88 262 -85 2 2 -32 116 -77 253 -45 136 -82 255
-82 263 -1 8 73 113 165 233 l166 217 -278 0 -279 0 -152 223 c-177 257 -168
245 -174 226z"/>
</g>
</svg>
